<svg width="473" height="705" viewBox="0 0 473 705" fill="none" xmlns="http://www.w3.org/2000/svg">
<g filter="url(#filter0_d_38_42)">
<path d="M15.2357 277.654C2.87633 264.985 11.8526 243.688 29.5517 243.688H192.1C203.145 243.688 212.1 252.642 212.1 263.688V424.809C212.1 442.424 190.975 451.436 178.259 439.246L95.175 359.596L15.2357 277.654Z" fill="white"/>
</g>
<g filter="url(#filter1_d_38_42)">
<path d="M278.066 205.964C265.397 218.323 244.1 209.347 244.1 191.648L244.1 29.1C244.1 18.0543 253.054 9.10002 264.1 9.10002L425.22 9.10001C442.836 9.10001 451.848 30.2247 439.658 42.9407L360.008 126.025L278.066 205.964Z" fill="white" fill-opacity="0.5" shape-rendering="crispEdges"/>
</g>
<g filter="url(#filter2_d_38_42)">
<path d="M212.1 29.1C212.1 18.0543 203.145 9.09998 192.1 9.09998H29.0996C18.0539 9.09998 9.09961 18.0543 9.09961 29.1V191.1C9.09961 202.146 18.0539 211.1 29.0996 211.1H192.1C203.145 211.1 212.1 202.146 212.1 191.1V29.1Z" fill="white" fill-opacity="0.5" shape-rendering="crispEdges"/>
</g>
<g filter="url(#filter3_d_38_42)">
<path d="M447.1 263.688C447.1 252.642 438.145 243.688 427.1 243.688H264.1C253.054 243.688 244.1 252.642 244.1 263.688V425.688C244.1 436.734 253.054 445.688 264.1 445.688H427.1C438.145 445.688 447.1 436.734 447.1 425.688V263.688Z" fill="white"/>
</g>
<g filter="url(#filter4_d_38_42)">
<path d="M15.2357 645.722C2.87633 658.391 11.8526 679.688 29.5517 679.688H192.1C203.145 679.688 212.1 670.734 212.1 659.688V498.567C212.1 480.952 190.975 471.94 178.259 484.13L95.175 563.78L15.2357 645.722Z" fill="white"/>
</g>
<g filter="url(#filter5_d_38_42)">
<path d="M447.1 497.688C447.1 486.642 438.145 477.688 427.1 477.688H264.1C253.054 477.688 244.1 486.642 244.1 497.688V659.688C244.1 670.734 253.054 679.688 264.1 679.688H427.1C438.145 679.688 447.1 670.734 447.1 659.688V497.688Z" fill="white"/>
</g>
<defs>
<filter id="filter0_d_38_42" x="0.411718" y="234.588" width="236.788" height="235.361" filterUnits="userSpaceOnUse" color-interpolation-filters="sRGB">
<feFlood flood-opacity="0" result="BackgroundImageFix"/>
<feColorMatrix in="SourceAlpha" type="matrix" values="0 0 0 0 0 0 0 0 0 0 0 0 0 0 0 0 0 0 127 0" result="hardAlpha"/>
<feOffset dx="8" dy="8"/>
<feGaussianBlur stdDeviation="8.55"/>
<feComposite in2="hardAlpha" operator="out"/>
<feColorMatrix type="matrix" values="0 0 0 0 0 0 0 0 0 0 0 0 0 0 0 0 0 0 0.5 0"/>
<feBlend mode="normal" in2="BackgroundImageFix" result="effect1_dropShadow_38_42"/>
<feBlend mode="normal" in="SourceGraphic" in2="effect1_dropShadow_38_42" result="shape"/>
</filter>
<filter id="filter1_d_38_42" x="235" y="-2.47955e-05" width="235.36" height="236.788" filterUnits="userSpaceOnUse" color-interpolation-filters="sRGB">
<feFlood flood-opacity="0" result="BackgroundImageFix"/>
<feColorMatrix in="SourceAlpha" type="matrix" values="0 0 0 0 0 0 0 0 0 0 0 0 0 0 0 0 0 0 127 0" result="hardAlpha"/>
<feOffset dx="8" dy="8"/>
<feGaussianBlur stdDeviation="8.55"/>
<feComposite in2="hardAlpha" operator="out"/>
<feColorMatrix type="matrix" values="0 0 0 0 0 0 0 0 0 0 0 0 0 0 0 0 0 0 0.5 0"/>
<feBlend mode="normal" in2="BackgroundImageFix" result="effect1_dropShadow_38_42"/>
<feBlend mode="normal" in="SourceGraphic" in2="effect1_dropShadow_38_42" result="shape"/>
</filter>
<filter id="filter2_d_38_42" x="-0.000391006" y="-2.47955e-05" width="237.2" height="236.2" filterUnits="userSpaceOnUse" color-interpolation-filters="sRGB">
<feFlood flood-opacity="0" result="BackgroundImageFix"/>
<feColorMatrix in="SourceAlpha" type="matrix" values="0 0 0 0 0 0 0 0 0 0 0 0 0 0 0 0 0 0 127 0" result="hardAlpha"/>
<feOffset dx="8" dy="8"/>
<feGaussianBlur stdDeviation="8.55"/>
<feComposite in2="hardAlpha" operator="out"/>
<feColorMatrix type="matrix" values="0 0 0 0 0 0 0 0 0 0 0 0 0 0 0 0 0 0 0.5 0"/>
<feBlend mode="normal" in2="BackgroundImageFix" result="effect1_dropShadow_38_42"/>
<feBlend mode="normal" in="SourceGraphic" in2="effect1_dropShadow_38_42" result="shape"/>
</filter>
<filter id="filter3_d_38_42" x="235" y="234.588" width="237.2" height="236.2" filterUnits="userSpaceOnUse" color-interpolation-filters="sRGB">
<feFlood flood-opacity="0" result="BackgroundImageFix"/>
<feColorMatrix in="SourceAlpha" type="matrix" values="0 0 0 0 0 0 0 0 0 0 0 0 0 0 0 0 0 0 127 0" result="hardAlpha"/>
<feOffset dx="8" dy="8"/>
<feGaussianBlur stdDeviation="8.55"/>
<feComposite in2="hardAlpha" operator="out"/>
<feColorMatrix type="matrix" values="0 0 0 0 0 0 0 0 0 0 0 0 0 0 0 0 0 0 0.5 0"/>
<feBlend mode="normal" in2="BackgroundImageFix" result="effect1_dropShadow_38_42"/>
<feBlend mode="normal" in="SourceGraphic" in2="effect1_dropShadow_38_42" result="shape"/>
</filter>
<filter id="filter4_d_38_42" x="0.411718" y="469.427" width="236.788" height="235.361" filterUnits="userSpaceOnUse" color-interpolation-filters="sRGB">
<feFlood flood-opacity="0" result="BackgroundImageFix"/>
<feColorMatrix in="SourceAlpha" type="matrix" values="0 0 0 0 0 0 0 0 0 0 0 0 0 0 0 0 0 0 127 0" result="hardAlpha"/>
<feOffset dx="8" dy="8"/>
<feGaussianBlur stdDeviation="8.55"/>
<feComposite in2="hardAlpha" operator="out"/>
<feColorMatrix type="matrix" values="0 0 0 0 0 0 0 0 0 0 0 0 0 0 0 0 0 0 0.5 0"/>
<feBlend mode="normal" in2="BackgroundImageFix" result="effect1_dropShadow_38_42"/>
<feBlend mode="normal" in="SourceGraphic" in2="effect1_dropShadow_38_42" result="shape"/>
</filter>
<filter id="filter5_d_38_42" x="235" y="468.588" width="237.2" height="236.2" filterUnits="userSpaceOnUse" color-interpolation-filters="sRGB">
<feFlood flood-opacity="0" result="BackgroundImageFix"/>
<feColorMatrix in="SourceAlpha" type="matrix" values="0 0 0 0 0 0 0 0 0 0 0 0 0 0 0 0 0 0 127 0" result="hardAlpha"/>
<feOffset dx="8" dy="8"/>
<feGaussianBlur stdDeviation="8.55"/>
<feComposite in2="hardAlpha" operator="out"/>
<feColorMatrix type="matrix" values="0 0 0 0 0 0 0 0 0 0 0 0 0 0 0 0 0 0 0.5 0"/>
<feBlend mode="normal" in2="BackgroundImageFix" result="effect1_dropShadow_38_42"/>
<feBlend mode="normal" in="SourceGraphic" in2="effect1_dropShadow_38_42" result="shape"/>
</filter>
</defs>
</svg>
