<svg width="507" height="768" viewBox="0 0 507 768" fill="none" xmlns="http://www.w3.org/2000/svg">
<path d="M250.694 0C318.406 0 382.109 21.2158 431.499 70.6631C480.971 119.63 502.992 182.705 502.992 250.458V269.766C502.992 301.215 489.332 327.161 471.793 344.764C465.394 351.186 458.559 356.418 451.52 360.624C463.462 375.205 473.811 391.099 482.286 408.324C500.179 442.957 507 480.547 507 517.542C507 585.802 485.295 650.039 434.434 699.196C384.631 747.331 321.231 768 253.9 768C209.975 768 166.949 759.181 127.545 738.508C88.7923 718.176 57.0226 688.625 34.7148 650.376L34.4629 649.944L34.2148 649.509C12.2158 610.869 2.40431 568.403 2.4043 524.782V501.452C2.40438 478.305 10.0671 450.078 32.8027 427.259C39.2663 420.772 46.8832 414.793 55.5107 409.828C45.6284 396.716 36.8022 382.767 28.9727 368.122C8.65142 330.112 0 288.625 0 246.436C3.95408e-05 179.282 21.7487 116.304 71.79 67.9746C121.194 20.2601 184.136 6.50263e-05 250.694 0ZM250.694 48C194.171 48.0001 143.998 64.9687 105.136 102.502C65.9548 140.343 48 190.065 48 246.436C48 282.011 55.2652 315.492 71.3037 345.491C85.3593 371.782 102.788 394.814 123.876 413.931C134.267 423.351 146.212 433.312 159.627 443.799H108.022C91.3835 443.799 77.5307 450.808 67.7402 460.22L66.8057 461.138C54.6364 473.352 50.4044 488.538 50.4043 501.452V524.782C50.4043 561.073 58.5161 595.177 75.9277 625.76L76.0518 625.978L76.1777 626.193C93.7438 656.312 118.713 679.67 149.845 696.003C181.302 712.507 216.441 720 253.9 720C311.077 720 361.746 702.693 401.075 664.682C440.933 626.159 459 575.27 459 517.542C459 486.208 453.196 456.415 439.436 429.963C427.447 405.441 410.569 383.924 389.577 365.362C377.722 354.277 362.659 341.603 344.629 327.419H397.374C410.381 327.419 425.601 323.117 437.789 310.885C447.627 301.011 454.992 286.831 454.992 269.766V250.458C454.992 193.87 436.991 143.952 398.312 105.352L397.396 104.441C358.566 65.6491 307.955 48 250.694 48ZM299.571 520.836C299.581 521.299 299.586 521.764 299.587 522.23C299.586 521.764 299.581 521.299 299.571 520.836ZM299.55 520.055C299.552 520.117 299.554 520.18 299.556 520.243C299.554 520.18 299.552 520.117 299.55 520.055ZM299.521 519.281C299.526 519.416 299.531 519.552 299.536 519.688C299.531 519.552 299.526 519.416 299.521 519.281ZM299.483 518.528C299.49 518.657 299.497 518.787 299.503 518.916C299.497 518.787 299.49 518.657 299.483 518.528ZM299.433 517.711C299.443 517.869 299.453 518.028 299.463 518.187C299.453 518.028 299.443 517.869 299.433 517.711ZM299.312 516.173C299.328 516.352 299.344 516.532 299.358 516.712C299.344 516.532 299.328 516.352 299.312 516.173ZM299.242 515.454C299.258 515.61 299.274 515.767 299.289 515.924C299.274 515.767 299.258 515.61 299.242 515.454ZM299.04 513.701C298.748 511.453 298.34 509.257 297.813 507.114C298.339 509.257 298.748 511.453 299.04 513.701ZM297.592 506.247C296.908 503.636 296.049 501.104 295.013 498.652C293.192 494.342 290.827 490.278 287.919 486.459C292.482 492.45 295.705 499.047 297.592 506.247ZM287.162 485.487C287.397 485.783 287.63 486.081 287.858 486.38C287.63 486.081 287.397 485.783 287.162 485.487ZM283.558 481.341C284.772 482.62 285.915 483.932 286.991 485.273C285.915 483.932 284.772 482.62 283.558 481.341ZM354.692 398.475C355.379 399.106 356.052 399.73 356.713 400.348C356.052 399.73 355.379 399.106 354.692 398.475ZM352.319 396.308C352.685 396.638 353.046 396.968 353.404 397.295C353.046 396.968 352.685 396.638 352.319 396.308ZM349.094 393.418C349.343 393.639 349.59 393.86 349.836 394.079C349.59 393.86 349.343 393.639 349.094 393.418ZM347.258 391.798C347.55 392.055 347.84 392.311 348.129 392.565C347.84 392.311 347.55 392.055 347.258 391.798ZM345.436 390.205C345.794 390.517 346.15 390.828 346.503 391.137C346.15 390.828 345.794 390.517 345.436 390.205ZM343.504 388.532C343.827 388.811 344.148 389.088 344.467 389.364C344.148 389.088 343.827 388.811 343.504 388.532ZM341.768 387.042C341.934 387.184 342.1 387.327 342.266 387.469C342.1 387.327 341.934 387.184 341.768 387.042ZM339.508 385.119C339.907 385.457 340.304 385.794 340.697 386.129C340.304 385.794 339.907 385.457 339.508 385.119ZM337.568 383.482C337.987 383.835 338.403 384.185 338.816 384.534C338.403 384.185 337.987 383.835 337.568 383.482ZM335.371 381.644C335.775 381.98 336.176 382.316 336.575 382.649C336.176 382.316 335.775 381.98 335.371 381.644ZM333.355 379.97C333.839 380.37 334.319 380.768 334.795 381.164C334.319 380.768 333.839 380.37 333.355 379.97ZM331.534 378.466C331.74 378.635 331.945 378.805 332.149 378.974C331.945 378.805 331.74 378.635 331.534 378.466ZM329.169 376.528C329.378 376.699 329.586 376.869 329.794 377.039C329.586 376.869 329.378 376.699 329.169 376.528ZM326.68 374.504C327.121 374.861 327.559 375.217 327.995 375.571C327.559 375.217 327.121 374.861 326.68 374.504ZM324.291 372.574C324.742 372.937 325.19 373.299 325.636 373.659C325.19 373.299 324.742 372.937 324.291 372.574ZM322.355 371.02C322.665 371.268 322.974 371.515 323.281 371.762C322.974 371.515 322.665 371.268 322.355 371.02ZM318.254 367.752C318.171 367.686 318.087 367.621 318.004 367.555C318.087 367.621 318.171 367.686 318.254 367.752ZM314.462 364.76C315.022 365.2 315.579 365.639 316.133 366.075C315.579 365.639 315.022 365.2 314.462 364.76ZM312.444 363.178C312.819 363.471 313.192 363.762 313.563 364.054C313.192 363.762 312.819 363.471 312.444 363.178ZM309.82 361.131C310.171 361.404 310.52 361.675 310.868 361.946C310.52 361.675 310.171 361.404 309.82 361.131ZM307.022 358.96C307.442 359.285 307.861 359.609 308.277 359.932C307.861 359.609 307.442 359.285 307.022 358.96ZM304.84 357.274C305.142 357.508 305.444 357.74 305.745 357.972C305.444 357.74 305.142 357.508 304.84 357.274ZM300.348 353.825C301.866 354.986 303.363 356.137 304.84 357.274C303.363 356.137 301.866 354.986 300.348 353.825ZM298.787 352.635C299.31 353.033 299.83 353.43 300.348 353.825C299.83 353.43 299.31 353.033 298.787 352.635ZM297.442 351.609C297.387 351.568 297.332 351.526 297.277 351.484C297.332 351.526 297.387 351.568 297.442 351.609ZM294.613 349.462C291.758 347.299 288.832 345.098 285.837 342.858L282.756 340.559C281.843 339.888 280.939 339.221 280.044 338.559C280.939 339.221 281.843 339.888 282.756 340.559C286.834 343.595 290.786 346.563 294.613 349.462ZM273.17 333.423C275.398 335.103 277.689 336.816 280.044 338.559C277.689 336.816 275.398 335.103 273.17 333.423ZM273.17 333.423C272.812 333.153 272.456 332.885 272.102 332.617C272.456 332.885 272.812 333.153 273.17 333.423ZM271.347 332.044C270.746 331.588 270.149 331.135 269.558 330.684C270.149 331.135 270.746 331.588 271.347 332.044ZM268.247 329.681C267.929 329.437 267.613 329.195 267.298 328.953C267.613 329.195 267.929 329.437 268.247 329.681ZM265.895 327.87C265.533 327.591 265.173 327.313 264.815 327.036C265.173 327.313 265.533 327.591 265.895 327.87ZM263.546 326.048C263.147 325.737 262.75 325.428 262.356 325.12C262.75 325.428 263.147 325.737 263.546 326.048ZM261.48 324.432C261.058 324.1 260.638 323.77 260.222 323.44C260.638 323.77 261.058 324.1 261.48 324.432ZM258.597 322.152C258.403 321.998 258.209 321.844 258.017 321.69C258.209 321.844 258.403 321.998 258.597 322.152ZM256.843 320.751C256.492 320.47 256.143 320.19 255.797 319.911C256.143 320.19 256.492 320.47 256.843 320.751ZM254.696 319.021C254.344 318.736 253.995 318.453 253.647 318.17C253.995 318.453 254.344 318.736 254.696 319.021ZM252.685 317.383C252.311 317.077 251.939 316.773 251.571 316.47C251.939 316.773 252.311 317.077 252.685 317.383ZM250.649 315.709C250.283 315.406 249.919 315.103 249.559 314.803C249.919 315.103 250.283 315.406 250.649 315.709ZM248.611 314.011C248.284 313.737 247.959 313.463 247.637 313.191C247.959 313.463 248.284 313.737 248.611 314.011ZM246.768 312.457C246.418 312.161 246.072 311.866 245.729 311.573C246.072 311.866 246.418 312.161 246.768 312.457ZM244.775 310.757C244.46 310.485 244.147 310.215 243.836 309.946C244.147 310.215 244.46 310.485 244.775 310.757ZM243.103 309.311C242.725 308.982 242.352 308.654 241.981 308.329C242.352 308.654 242.725 308.982 243.103 309.311ZM241.406 307.823C241.052 307.511 240.702 307.2 240.355 306.892C240.702 307.2 241.052 307.511 241.406 307.823ZM239.606 306.224C239.285 305.936 238.968 305.649 238.653 305.364C238.968 305.649 239.285 305.936 239.606 306.224ZM238.032 304.801C237.664 304.466 237.301 304.132 236.941 303.802C237.301 304.132 237.664 304.466 238.032 304.801ZM236.432 303.332C236.111 303.035 235.794 302.74 235.48 302.446C235.794 302.74 236.111 303.035 236.432 303.332ZM234.893 301.896C234.57 301.592 234.252 301.29 233.937 300.989C234.252 301.29 234.57 301.592 234.893 301.896ZM233.389 300.467C233.088 300.178 232.792 299.89 232.499 299.605C232.792 299.89 233.088 300.178 233.389 300.467ZM231.989 299.109C231.627 298.755 231.271 298.403 230.92 298.054C231.271 298.403 231.627 298.755 231.989 299.109ZM229.379 296.503C229.039 296.156 228.706 295.811 228.378 295.47C228.706 295.811 229.039 296.156 229.379 296.503ZM225.738 292.647C224.995 291.827 224.289 291.026 223.622 290.243C224.289 291.026 224.995 291.827 225.738 292.647ZM297.984 277.006C297.887 276.876 297.793 276.745 297.702 276.613C297.793 276.745 297.887 276.876 297.984 277.006ZM297.5 276.309C297.48 276.278 297.459 276.248 297.439 276.217C297.459 276.248 297.48 276.278 297.5 276.309ZM297.345 276.064C297.29 275.976 297.236 275.889 297.185 275.8C297.236 275.889 297.29 275.976 297.345 276.064ZM297.103 275.654C297.054 275.568 297.005 275.482 296.959 275.395C297.005 275.482 297.054 275.568 297.103 275.654ZM296.862 275.207C296.824 275.132 296.786 275.058 296.75 274.982C296.786 275.058 296.824 275.132 296.862 275.207ZM296.664 274.801C296.626 274.718 296.588 274.635 296.552 274.552C296.588 274.635 296.626 274.718 296.664 274.801ZM296.453 274.315C296.429 274.258 296.406 274.2 296.383 274.142C296.406 274.2 296.429 274.258 296.453 274.315ZM296.298 273.917C296.273 273.849 296.249 273.78 296.226 273.712C296.249 273.78 296.273 273.849 296.298 273.917ZM296.144 273.469C296.122 273.403 296.103 273.336 296.083 273.27C296.103 273.336 296.122 273.403 296.144 273.469ZM296.016 273.039C295.995 272.963 295.975 272.888 295.955 272.812C295.975 272.888 295.995 272.963 296.016 273.039ZM295.9 272.594C295.883 272.521 295.868 272.447 295.853 272.374C295.868 272.447 295.883 272.521 295.9 272.594ZM295.801 272.126C295.787 272.055 295.775 271.983 295.763 271.911C295.775 271.983 295.787 272.055 295.801 272.126ZM295.724 271.681C295.705 271.557 295.689 271.433 295.674 271.308C295.689 271.433 295.705 271.557 295.724 271.681ZM295.661 271.209C295.653 271.138 295.647 271.066 295.64 270.994C295.647 271.066 295.653 271.138 295.661 271.209ZM281.376 206.954C281.844 207.495 282.305 208.052 282.756 208.626C282.305 208.052 281.844 207.495 281.376 206.954ZM280.05 205.486C280.499 205.961 280.941 206.451 281.376 206.954C280.941 206.451 280.499 205.961 280.05 205.486ZM279.635 205.055C279.693 205.114 279.75 205.174 279.808 205.233C279.75 205.174 279.693 205.114 279.635 205.055ZM278.827 204.247C278.879 204.297 278.93 204.348 278.981 204.398C278.93 204.348 278.879 204.297 278.827 204.247ZM278.418 203.854C278.481 203.914 278.544 203.975 278.607 204.035C278.544 203.975 278.481 203.914 278.418 203.854ZM278.021 203.482C278.077 203.535 278.133 203.588 278.189 203.641C278.133 203.588 278.077 203.535 278.021 203.482ZM277.6 203.1C277.647 203.142 277.694 203.185 277.741 203.228C277.694 203.185 277.647 203.142 277.6 203.1ZM276.739 202.352C276.79 202.395 276.841 202.438 276.892 202.481C276.841 202.438 276.79 202.395 276.739 202.352ZM276.3 201.985C276.369 202.042 276.438 202.1 276.508 202.158C276.438 202.1 276.369 202.042 276.3 201.985ZM275.843 201.616C275.931 201.686 276.018 201.756 276.105 201.827C276.018 201.756 275.931 201.686 275.843 201.616ZM275.392 201.264C275.484 201.335 275.576 201.406 275.668 201.479C275.576 201.406 275.484 201.335 275.392 201.264ZM275.023 200.982C275.147 201.075 275.269 201.169 275.392 201.264C275.269 201.169 275.147 201.075 275.023 200.982ZM274.566 200.644C274.597 200.666 274.628 200.689 274.659 200.712C274.628 200.689 274.597 200.666 274.566 200.644ZM274.06 200.281C274.141 200.339 274.222 200.397 274.304 200.455C274.222 200.397 274.141 200.339 274.06 200.281ZM273.646 199.995C273.712 200.04 273.776 200.085 273.841 200.13C273.776 200.085 273.712 200.04 273.646 199.995ZM273.155 199.665C273.228 199.713 273.301 199.762 273.373 199.811C273.301 199.762 273.228 199.713 273.155 199.665ZM272.685 199.358C272.779 199.419 272.872 199.48 272.966 199.541C272.872 199.48 272.779 199.419 272.685 199.358ZM272.236 199.077C272.316 199.126 272.395 199.176 272.474 199.226C272.395 199.176 272.316 199.126 272.236 199.077ZM271.769 198.792C271.842 198.836 271.916 198.881 271.989 198.926C271.916 198.881 271.842 198.836 271.769 198.792ZM271.337 198.538C271.382 198.564 271.426 198.59 271.471 198.616C271.426 198.59 271.382 198.564 271.337 198.538ZM270.833 198.251C270.89 198.283 270.946 198.315 271.003 198.347C270.946 198.315 270.89 198.283 270.833 198.251ZM270.305 197.961C270.39 198.007 270.475 198.054 270.561 198.101C270.475 198.054 270.39 198.007 270.305 197.961ZM269.838 197.715C269.929 197.762 270.02 197.81 270.111 197.858C270.02 197.81 269.929 197.762 269.838 197.715ZM269.38 197.48C269.438 197.51 269.496 197.54 269.555 197.569C269.496 197.54 269.438 197.51 269.38 197.48ZM268.812 197.202C268.916 197.252 269.019 197.303 269.123 197.354C269.019 197.303 268.916 197.252 268.812 197.202ZM268.374 196.996C268.454 197.033 268.533 197.07 268.612 197.107C268.533 197.07 268.454 197.033 268.374 196.996ZM267.806 196.738C267.908 196.784 268.01 196.829 268.111 196.875C268.01 196.829 267.908 196.784 267.806 196.738ZM267.302 196.52C267.41 196.566 267.519 196.612 267.627 196.659C267.519 196.612 267.41 196.566 267.302 196.52ZM266.809 196.314C266.914 196.358 267.02 196.4 267.125 196.444C267.02 196.4 266.914 196.358 266.809 196.314ZM266.303 196.112C266.388 196.146 266.473 196.179 266.558 196.213C266.473 196.179 266.388 196.146 266.303 196.112ZM265.803 195.92C265.891 195.953 265.979 195.987 266.066 196.021C265.979 195.987 265.891 195.953 265.803 195.92ZM265.24 195.714C265.35 195.753 265.459 195.792 265.567 195.832C265.459 195.792 265.35 195.753 265.24 195.714ZM264.719 195.532C264.832 195.571 264.944 195.609 265.057 195.648C264.944 195.609 264.832 195.571 264.719 195.532ZM264.174 195.352C264.288 195.389 264.402 195.426 264.516 195.464C264.402 195.426 264.288 195.389 264.174 195.352ZM263.63 195.181C263.755 195.219 263.88 195.258 264.005 195.298C263.88 195.258 263.755 195.219 263.63 195.181ZM263.184 195.046C263.278 195.074 263.372 195.102 263.466 195.13C263.372 195.102 263.278 195.074 263.184 195.046ZM262.674 194.9C262.732 194.917 262.791 194.933 262.85 194.949C262.791 194.933 262.732 194.917 262.674 194.9ZM262.003 194.719C262.124 194.75 262.245 194.783 262.366 194.815C262.245 194.783 262.124 194.75 262.003 194.719ZM261.515 194.596C261.624 194.623 261.732 194.649 261.841 194.677C261.732 194.649 261.624 194.623 261.515 194.596ZM261.038 194.48C261.105 194.496 261.171 194.511 261.237 194.527C261.171 194.511 261.105 194.496 261.038 194.48ZM260.471 194.352C260.544 194.368 260.617 194.384 260.689 194.4C260.617 194.384 260.544 194.368 260.471 194.352ZM259.882 194.229C259.962 194.245 260.042 194.261 260.122 194.277C260.042 194.261 259.962 194.245 259.882 194.229ZM259.312 194.116C259.407 194.134 259.502 194.152 259.598 194.171C259.502 194.152 259.407 194.134 259.312 194.116ZM258.857 194.033C258.901 194.041 258.945 194.049 258.988 194.057C258.945 194.049 258.901 194.041 258.857 194.033ZM258.348 193.946C258.368 193.95 258.388 193.953 258.408 193.956C258.388 193.953 258.368 193.95 258.348 193.946ZM257.833 193.863C257.432 193.802 257.028 193.748 256.622 193.697C257.028 193.748 257.432 193.802 257.833 193.863ZM255.098 193.534C255.459 193.567 255.817 193.603 256.174 193.644C255.817 193.603 255.459 193.567 255.098 193.534ZM254.845 193.512C254.885 193.515 254.925 193.518 254.966 193.521C254.925 193.518 254.885 193.515 254.845 193.512ZM253.637 193.426C253.696 193.429 253.756 193.433 253.815 193.437C253.756 193.433 253.696 193.429 253.637 193.426ZM251.321 193.345C252.102 193.354 252.874 193.381 253.637 193.426C252.874 193.381 252.102 193.354 251.321 193.345ZM299.377 516.938C299.393 517.138 299.407 517.338 299.421 517.539C299.407 517.338 299.393 517.138 299.377 516.938ZM299.153 514.633C299.173 514.801 299.192 514.97 299.21 515.14C299.192 514.97 299.173 514.801 299.153 514.633ZM297.63 506.391C297.678 506.575 297.724 506.76 297.771 506.945C297.724 506.76 297.678 506.575 297.63 506.391ZM354.142 397.967C354.326 398.136 354.509 398.306 354.692 398.475C354.509 398.306 354.326 398.136 354.142 397.967ZM350.817 394.955C351.324 395.409 351.825 395.86 352.319 396.308C351.825 395.86 351.324 395.409 350.817 394.955ZM230.654 297.791C230.26 297.397 229.874 297.006 229.494 296.619C229.874 297.006 230.26 297.397 230.654 297.791ZM228.073 295.153C227.685 294.747 227.305 294.344 226.934 293.946C227.305 294.344 227.685 294.747 228.073 295.153ZM226.901 293.912C226.562 293.548 226.231 293.187 225.906 292.83C226.231 293.187 226.562 293.548 226.901 293.912ZM295.595 270.355C295.6 270.482 295.606 270.608 295.615 270.733C295.606 270.608 295.6 270.482 295.595 270.355ZM279.625 205.044L279.273 204.688C279.394 204.809 279.515 204.931 279.635 205.055C279.631 205.051 279.628 205.047 279.625 205.044ZM276.892 202.481C276.989 202.565 277.087 202.649 277.185 202.733C277.087 202.649 276.989 202.565 276.892 202.481ZM274.659 200.712C274.781 200.801 274.902 200.891 275.023 200.982C274.902 200.891 274.781 200.801 274.659 200.712Z" fill="white"/>
</svg>
