<svg width="440" height="672" viewBox="0 0 440 672" fill="none" xmlns="http://www.w3.org/2000/svg">
<mask id="mask0_41_17" style="mask-type:alpha" maskUnits="userSpaceOnUse" x="-1" y="0" width="441" height="671">
<path d="M6.16417 268.719C-6.25163 256.042 2.76567 234.732 20.5456 234.732H183.836C194.932 234.732 203.927 243.692 203.927 254.744V415.964C203.927 433.59 182.706 442.608 169.932 430.41L86.4685 350.711L6.16417 268.719Z" fill="white"/>
<path d="M270.193 196.985C257.467 209.352 236.072 200.37 236.072 182.66L236.072 20.0123C236.072 8.95983 245.067 2.50737e-05 256.164 2.45905e-05L418.02 1.75434e-05C435.716 1.67729e-05 444.769 21.1377 432.523 33.8614L352.509 116.997L270.193 196.985Z" fill="white"/>
<path d="M203.926 20.0123C203.926 8.9598 194.931 0 183.834 0H20.0902C8.99404 0 -0.00115585 8.95981 -0.00115585 20.0123V182.112C-0.00115585 193.164 8.99404 202.124 20.0902 202.124H183.834C194.931 202.124 203.926 193.164 203.926 182.112V20.0123Z" fill="white"/>
<path d="M440 254.744C440 243.692 431.005 234.732 419.909 234.732H256.164C245.068 234.732 236.073 243.692 236.073 254.744V416.844C236.073 427.896 245.068 436.856 256.164 436.856H419.909C431.005 436.856 440 427.896 440 416.844V254.744Z" fill="white"/>
<path d="M6.16417 637.013C-6.25163 649.69 2.76567 671 20.5456 671H183.836C194.932 671 203.927 662.04 203.927 650.988V489.768C203.927 472.142 182.706 463.124 169.932 475.322L86.4685 555.021L6.16417 637.013Z" fill="white"/>
<path d="M440 488.888C440 477.836 431.005 468.876 419.909 468.876H256.164C245.068 468.876 236.073 477.836 236.073 488.888V650.988C236.073 662.04 245.068 671 256.164 671H419.909C431.005 671 440 662.04 440 650.988V488.888Z" fill="white"/>
</mask>
<g mask="url(#mask0_41_17)">
<rect width="437.991" height="671.412" fill="url(#paint0_linear_41_17)"/>
</g>
<defs>
<linearGradient id="paint0_linear_41_17" x1="3.20298e-06" y1="8.00491" x2="594.369" y2="458.662" gradientUnits="userSpaceOnUse">
<stop stop-color="#F3C087"/>
<stop offset="0.5" stop-color="#F59683"/>
<stop offset="1" stop-color="#F755AB"/>
</linearGradient>
</defs>
</svg>
