<svg width="1938" height="960" viewBox="0 0 1938 960" fill="none" xmlns="http://www.w3.org/2000/svg">
<path d="M525.4 800C520.067 800 517.4 797.333 517.4 792V248C517.4 242.667 520.067 240 525.4 240H586.2C591.533 240 594.2 242.667 594.2 248V792C594.2 797.333 591.533 800 586.2 800H525.4ZM935.325 620C935.325 625.333 932.658 628 927.325 628H746.525C744.392 628 743.325 629.067 743.325 631.2V674.4C743.325 693.6 748.658 709.333 759.325 721.6C769.992 733.867 783.858 740 800.925 740C815.858 740 828.392 735.467 838.525 726.4C848.658 717.333 855.058 705.6 857.725 691.2C859.325 686.933 862.258 684.8 866.525 684.8L925.725 688C928.392 688 930.258 688.8 931.325 690.4C932.925 692 933.458 693.867 932.925 696C929.192 730.667 915.858 757.867 892.925 777.6C870.525 796.8 839.858 806.4 800.925 806.4C759.858 806.4 727.058 794.933 702.525 772C678.525 749.067 666.525 718.4 666.525 680V513.6C666.525 475.733 678.525 445.067 702.525 421.6C727.058 398.133 759.858 386.4 800.925 386.4C842.525 386.4 875.325 398.133 899.325 421.6C923.325 445.067 935.325 475.733 935.325 513.6V620ZM800.925 452.8C783.858 452.8 769.992 458.933 759.325 471.2C748.658 483.467 743.325 499.2 743.325 518.4V560.8C743.325 562.933 744.392 564 746.525 564H856.125C858.258 564 859.325 562.933 859.325 560.8V518.4C859.325 499.2 853.992 483.467 843.325 471.2C832.658 458.933 818.525 452.8 800.925 452.8ZM1268.92 620C1268.92 625.333 1266.25 628 1260.92 628H1080.12C1077.99 628 1076.92 629.067 1076.92 631.2V674.4C1076.92 693.6 1082.25 709.333 1092.92 721.6C1103.59 733.867 1117.45 740 1134.52 740C1149.45 740 1161.99 735.467 1172.12 726.4C1182.25 717.333 1188.65 705.6 1191.32 691.2C1192.92 686.933 1195.85 684.8 1200.12 684.8L1259.32 688C1261.99 688 1263.85 688.8 1264.92 690.4C1266.52 692 1267.05 693.867 1266.52 696C1262.79 730.667 1249.45 757.867 1226.52 777.6C1204.12 796.8 1173.45 806.4 1134.52 806.4C1093.45 806.4 1060.65 794.933 1036.12 772C1012.12 749.067 1000.12 718.4 1000.12 680V513.6C1000.12 475.733 1012.12 445.067 1036.12 421.6C1060.65 398.133 1093.45 386.4 1134.52 386.4C1176.12 386.4 1208.92 398.133 1232.92 421.6C1256.92 445.067 1268.92 475.733 1268.92 513.6V620ZM1134.52 452.8C1117.45 452.8 1103.59 458.933 1092.92 471.2C1082.25 483.467 1076.92 499.2 1076.92 518.4V560.8C1076.92 562.933 1077.99 564 1080.12 564H1189.72C1191.85 564 1192.92 562.933 1192.92 560.8V518.4C1192.92 499.2 1187.59 483.467 1176.92 471.2C1166.25 458.933 1152.12 452.8 1134.52 452.8ZM1417.08 800C1412.28 800 1409.35 797.6 1408.28 792.8L1309.88 401.6L1309.08 398.4C1309.08 394.667 1311.48 392.8 1316.28 392.8H1384.28C1389.61 392.8 1392.55 395.2 1393.08 400L1450.68 674.4C1451.21 676 1451.75 676.8 1452.28 676.8C1452.81 676.8 1453.35 676 1453.88 674.4L1510.68 400C1511.75 395.2 1514.68 392.8 1519.48 392.8L1587.48 393.6C1590.15 393.6 1592.01 394.4 1593.08 396C1594.68 397.6 1594.95 399.733 1593.88 402.4L1496.28 792.8C1495.75 797.6 1492.81 800 1487.48 800H1417.08ZM1907.2 620C1907.2 625.333 1904.53 628 1899.2 628H1718.4C1716.27 628 1715.2 629.067 1715.2 631.2V674.4C1715.2 693.6 1720.53 709.333 1731.2 721.6C1741.87 733.867 1755.73 740 1772.8 740C1787.73 740 1800.27 735.467 1810.4 726.4C1820.53 717.333 1826.93 705.6 1829.6 691.2C1831.2 686.933 1834.13 684.8 1838.4 684.8L1897.6 688C1900.27 688 1902.13 688.8 1903.2 690.4C1904.8 692 1905.33 693.867 1904.8 696C1901.07 730.667 1887.73 757.867 1864.8 777.6C1842.4 796.8 1811.73 806.4 1772.8 806.4C1731.73 806.4 1698.93 794.933 1674.4 772C1650.4 749.067 1638.4 718.4 1638.4 680V513.6C1638.4 475.733 1650.4 445.067 1674.4 421.6C1698.93 398.133 1731.73 386.4 1772.8 386.4C1814.4 386.4 1847.2 398.133 1871.2 421.6C1895.2 445.067 1907.2 475.733 1907.2 513.6V620ZM1772.8 452.8C1755.73 452.8 1741.87 458.933 1731.2 471.2C1720.53 483.467 1715.2 499.2 1715.2 518.4V560.8C1715.2 562.933 1716.27 564 1718.4 564H1828C1830.13 564 1831.2 562.933 1831.2 560.8V518.4C1831.2 499.2 1825.87 483.467 1815.2 471.2C1804.53 458.933 1790.4 452.8 1772.8 452.8Z" fill="black"/>
<path d="M217.2 166C283.6 166 336 183.6 374.4 218.8C413.6 254 433.2 301.601 433.2 361.601C433.2 365.6 431.6 369.2 428.4 372.4C426 374.8 422.801 376 418.801 376H290.4C286.401 376 282.801 374.8 279.601 372.4C277.201 369.2 276 365.6 276 361.601V352C276 336 270.8 323.201 260.4 313.601C250.8 303.201 238 298 222 298C205.2 298 192 303.6 182.4 314.8C172.8 325.2 168 337.6 168 352C168 371.2 176 386.401 192 397.601C208.8 408.001 234.001 419.6 267.601 432.4C302 445.2 331.2 458.4 355.2 472C380 484.8 401.201 503.6 418.801 528.4C436.401 552.4 445.2 582.801 445.2 619.601C445.2 674.8 424.8 718.801 384 751.601C344 783.6 290.4 799.601 223.2 799.601C155.2 799.601 100.8 783.601 60 751.601C20 718.801 0 675.2 0 620.8V612.4C0 608.4 1.20059 605.2 3.60059 602.8C6.80049 599.6 10.4006 598.2 14.4004 598.2H37.2002V678.631C37.2002 682.43 41.9991 684.089 44.3457 681.102L76.4814 640.186C78.0447 638.195 81.0405 638.138 82.6777 640.068L118.149 681.888C120.558 684.728 125.2 683.025 125.2 679.301V598.2H146.4C150.4 598.2 153.6 599.6 156 602.8C159.2 605.2 160.8 608.4 160.8 612.4V616C160.8 632.8 166.8 646.8 178.8 658C190.8 668.4 205.6 673.601 223.2 673.601C239.2 673.601 251.6 669.2 260.4 660.4C270 650.8 274.801 638.8 274.801 624.4C274.801 606.8 267.2 593.201 252 583.601C236.8 573.201 219.6 564.8 200.4 558.4C182 551.2 169.2 546.4 162 544C118 528 80.8003 506 50.4004 478C20.8005 449.2 6.00003 408 6 354.4C6 296 25.2006 250 63.6006 216.4C102.001 182.8 153.2 166 217.2 166Z" fill="black"/>
</svg>
