<svg width="446" height="634" viewBox="0 0 446 634" fill="none" xmlns="http://www.w3.org/2000/svg">
<g filter="url(#filter0_ii_2_68)">
<path d="M217.2 0C283.6 0 336 17.5999 374.4 52.7998C413.6 87.9998 433.2 135.601 433.2 195.601C433.2 199.6 431.6 203.2 428.4 206.4C426 208.8 422.801 210 418.801 210H290.4C286.401 210 282.801 208.8 279.601 206.4C277.201 203.2 276 199.6 276 195.601V186C276 170 270.8 157.201 260.4 147.601C250.8 137.201 238 132 222 132C205.2 132 192 137.6 182.4 148.8C172.8 159.2 168 171.6 168 186C168 205.2 176 220.401 192 231.601C208.8 242.001 234.001 253.6 267.601 266.4C302 279.2 331.2 292.4 355.2 306C380 318.8 401.201 337.6 418.801 362.4C436.401 386.4 445.2 416.801 445.2 453.601C445.2 508.8 424.8 552.801 384 585.601C344 617.6 290.4 633.601 223.2 633.601C155.2 633.601 100.8 617.601 60 585.601C20 552.801 0 509.2 0 454.8V446.4C0 442.4 1.20059 439.2 3.60059 436.8C6.80049 433.6 10.4006 432.2 14.4004 432.2H37.2002V512.631C37.2002 516.43 41.9991 518.089 44.3457 515.102L76.4814 474.186C78.0447 472.195 81.0405 472.138 82.6777 474.068L118.149 515.888C120.558 518.728 125.2 517.025 125.2 513.301V432.2H146.4C150.4 432.2 153.6 433.6 156 436.8C159.2 439.2 160.8 442.4 160.8 446.4V450C160.8 466.8 166.8 480.8 178.8 492C190.8 502.4 205.6 507.601 223.2 507.601C239.2 507.601 251.6 503.2 260.4 494.4C270 484.8 274.801 472.8 274.801 458.4C274.801 440.8 267.2 427.201 252 417.601C236.8 407.201 219.6 398.8 200.4 392.4C182 385.2 169.2 380.4 162 378C118 362 80.8003 340 50.4004 312C20.8005 283.2 6.00003 242 6 188.4C6 130 25.2006 84.0004 63.6006 50.4004C102.001 16.8005 153.2 1.06827e-05 217.2 0Z" fill="black" fill-opacity="0.25"/>
</g>
<defs>
<filter id="filter0_ii_2_68" x="0" y="0" width="445.2" height="641.601" filterUnits="userSpaceOnUse" color-interpolation-filters="sRGB">
<feFlood flood-opacity="0" result="BackgroundImageFix"/>
<feBlend mode="normal" in="SourceGraphic" in2="BackgroundImageFix" result="shape"/>
<feColorMatrix in="SourceAlpha" type="matrix" values="0 0 0 0 0 0 0 0 0 0 0 0 0 0 0 0 0 0 127 0" result="hardAlpha"/>
<feOffset dy="4"/>
<feGaussianBlur stdDeviation="2"/>
<feComposite in2="hardAlpha" operator="arithmetic" k2="-1" k3="1"/>
<feColorMatrix type="matrix" values="0 0 0 0 0 0 0 0 0 0 0 0 0 0 0 0 0 0 0.25 0"/>
<feBlend mode="normal" in2="shape" result="effect1_innerShadow_2_68"/>
<feColorMatrix in="SourceAlpha" type="matrix" values="0 0 0 0 0 0 0 0 0 0 0 0 0 0 0 0 0 0 127 0" result="hardAlpha"/>
<feOffset dy="8"/>
<feGaussianBlur stdDeviation="6"/>
<feComposite in2="hardAlpha" operator="arithmetic" k2="-1" k3="1"/>
<feColorMatrix type="matrix" values="0 0 0 0 0.223529 0 0 0 0 0.0862745 0 0 0 0 0.0156863 0 0 0 1 0"/>
<feBlend mode="normal" in2="effect1_innerShadow_2_68" result="effect2_innerShadow_2_68"/>
</filter>
</defs>
</svg>
