<svg width="315" height="576" viewBox="0 0 315 576" fill="none" xmlns="http://www.w3.org/2000/svg">
<path d="M157.901 576C126.908 576 99.6565 569.832 76.145 557.497C52.6336 545.162 34.4656 528 21.6412 506.011C8.81679 483.486 2.40458 457.743 2.40458 428.782V405.453C2.40458 402.771 3.20611 400.626 4.80916 399.017C6.94656 396.872 9.35114 395.799 12.0229 395.799H104.198C106.87 395.799 109.008 396.872 110.611 399.017C112.748 400.626 113.817 402.771 113.817 405.453V423.151C113.817 439.777 118.092 453.184 126.641 463.374C135.191 473.564 145.878 478.659 158.702 478.659C171.527 478.659 182.214 473.832 190.763 464.179C199.313 454.525 203.588 441.922 203.588 426.369C203.588 410.279 198.244 396.603 187.557 385.341C176.87 373.542 156.031 356.38 125.038 333.855C98.3206 314.547 76.6794 297.385 60.1145 282.369C43.5496 267.352 29.3893 248.849 17.6336 226.86C5.87786 204.872 0 179.397 0 150.436C0 104.849 14.1603 68.3799 42.4809 41.0279C70.8015 13.676 108.206 0 154.695 0C201.718 0 239.389 14.2123 267.71 42.6369C296.565 71.0614 310.992 108.335 310.992 154.458V173.765C310.992 176.447 309.924 178.86 307.786 181.006C306.183 182.615 304.046 183.419 301.374 183.419H209.198C206.527 183.419 204.122 182.615 201.985 181.006C200.382 178.86 199.58 176.447 199.58 173.765V152.045C199.58 135.419 195.305 122.279 186.756 112.626C178.74 102.436 168.053 97.3408 154.695 97.3408C141.87 97.3408 131.45 102.168 123.435 111.821C115.42 120.939 111.412 133.81 111.412 150.436C111.412 166.525 116.489 180.737 126.641 193.073C136.794 205.408 156.832 222.57 186.756 244.559C219.885 269.229 244.733 289.341 261.298 304.894C278.397 319.911 291.489 336.804 300.572 355.575C310.191 373.81 315 395.799 315 421.542C315 468.737 300.572 506.279 271.718 534.168C242.863 562.056 204.924 576 157.901 576Z" fill="white"/>
</svg>
