<svg width="968" height="968" viewBox="0 0 968 968" fill="none" xmlns="http://www.w3.org/2000/svg">
<path d="M240.02 959.711C243.989 959.903 247.983 960 252 960H263.6C265.809 960 267.6 961.791 267.6 964C267.6 966.209 265.809 968 263.6 968H252C247.854 968 243.731 967.9 239.633 967.702C237.426 967.595 235.725 965.72 235.831 963.514C235.938 961.307 237.813 959.604 240.02 959.711ZM310 960C312.209 960 314 961.791 314 964C314 966.209 312.209 968 310 968H286.8C284.591 968 282.8 966.209 282.8 964C282.8 961.791 284.591 960 286.8 960H310ZM356.4 960C358.609 960 360.4 961.791 360.4 964C360.4 966.209 358.609 968 356.4 968H333.2C330.991 968 329.2 966.209 329.2 964C329.2 961.791 330.991 960 333.2 960H356.4ZM402.8 960C405.009 960 406.8 961.791 406.8 964C406.8 966.209 405.009 968 402.8 968H379.6C377.391 968 375.6 966.209 375.6 964C375.6 961.791 377.391 960 379.6 960H402.8ZM449.2 960C451.409 960 453.2 961.791 453.2 964C453.2 966.209 451.409 968 449.2 968H426C423.791 968 422 966.209 422 964C422 961.791 423.791 960 426 960H449.2ZM495.6 960C497.809 960 499.6 961.791 499.6 964C499.6 966.209 497.809 968 495.6 968H472.4C470.191 968 468.4 966.209 468.4 964C468.4 961.791 470.191 960 472.4 960H495.6ZM542 960C544.209 960 546 961.791 546 964C546 966.209 544.209 968 542 968H518.8C516.591 968 514.8 966.209 514.8 964C514.8 961.791 516.591 960 518.8 960H542ZM588.4 960C590.609 960 592.4 961.791 592.4 964C592.4 966.209 590.609 968 588.4 968H565.2C562.991 968 561.2 966.209 561.2 964C561.2 961.791 562.991 960 565.2 960H588.4ZM634.8 960C637.009 960 638.8 961.791 638.8 964C638.8 966.209 637.009 968 634.8 968H611.6C609.391 968 607.6 966.209 607.6 964C607.6 961.791 609.391 960 611.6 960H634.8ZM681.2 960C683.409 960 685.2 961.791 685.2 964C685.2 966.209 683.409 968 681.2 968H658C655.791 968 654 966.209 654 964C654 961.791 655.791 960 658 960H681.2ZM727.98 959.711C730.187 959.604 732.062 961.307 732.169 963.514C732.275 965.72 730.574 967.595 728.367 967.702C724.269 967.9 720.146 968 716 968H704.4C702.191 968 700.4 966.209 700.4 964C700.4 961.791 702.191 960 704.4 960H716C720.017 960 724.011 959.903 727.98 959.711ZM187.839 955.653C188.374 953.51 190.545 952.207 192.688 952.742C200.38 954.663 208.217 956.218 216.18 957.39C218.365 957.711 219.876 959.744 219.555 961.93C219.233 964.115 217.2 965.626 215.015 965.305C206.791 964.095 198.696 962.488 190.75 960.504C188.607 959.969 187.304 957.797 187.839 955.653ZM775.312 952.742C777.455 952.207 779.626 953.51 780.161 955.653C780.696 957.797 779.393 959.969 777.25 960.504C769.304 962.488 761.209 964.095 752.985 965.305C750.8 965.626 748.767 964.115 748.445 961.93C748.124 959.744 749.635 957.711 751.82 957.39C759.783 956.218 767.62 954.663 775.312 952.742ZM142.327 938.529C143.273 936.533 145.659 935.682 147.655 936.628C154.842 940.033 162.222 943.097 169.773 945.8C171.853 946.544 172.936 948.833 172.191 950.913C171.447 952.993 169.157 954.076 167.077 953.332C159.276 950.54 151.653 947.375 144.229 943.857C142.233 942.911 141.381 940.526 142.327 938.529ZM820.345 936.628C822.341 935.682 824.727 936.533 825.673 938.529C826.619 940.526 825.767 942.912 823.771 943.857C816.347 947.375 808.724 950.539 800.923 953.331C798.843 954.075 796.553 952.993 795.809 950.913C795.064 948.833 796.147 946.544 798.227 945.8C805.778 943.097 813.158 940.033 820.345 936.628ZM101.049 912.825C102.366 911.052 104.872 910.682 106.646 911.999C113.045 916.753 119.686 921.201 126.546 925.321C128.44 926.459 129.053 928.917 127.915 930.811C126.777 932.704 124.32 933.317 122.427 932.18C115.342 927.924 108.484 923.33 101.875 918.421C100.102 917.104 99.7318 914.599 101.049 912.825ZM861.354 911.999C863.128 910.682 865.634 911.052 866.951 912.825C868.268 914.599 867.898 917.104 866.125 918.421C859.516 923.33 852.658 927.924 845.573 932.18C843.68 933.317 841.222 932.704 840.085 930.811C838.947 928.917 839.56 926.459 841.454 925.321C848.314 921.201 854.954 916.753 861.354 911.999ZM65.5547 879.584C67.1911 878.1 69.721 878.223 71.2051 879.859C76.5711 885.776 82.2236 891.429 88.1406 896.795C89.777 898.279 89.9001 900.809 88.416 902.445C86.9321 904.082 84.403 904.205 82.7666 902.722C76.6568 897.181 70.8193 891.343 65.2783 885.233C63.7947 883.597 63.9185 881.068 65.5547 879.584ZM896.795 879.859C898.279 878.223 900.809 878.1 902.445 879.584C904.082 881.068 904.205 883.597 902.722 885.233C897.181 891.343 891.343 897.181 885.233 902.722C883.597 904.205 881.068 904.082 879.584 902.445C878.1 900.809 878.223 898.279 879.859 896.795C885.776 891.429 891.429 885.776 896.795 879.859ZM37.1895 840.085C39.0832 838.947 41.5412 839.56 42.6787 841.454C46.7989 848.314 51.2468 854.954 56.001 861.354C57.3183 863.128 56.9482 865.634 55.1748 866.951C53.4015 868.268 50.8964 867.898 49.5791 866.125C44.6696 859.516 40.0757 852.658 35.8203 845.573C34.683 843.68 35.296 841.222 37.1895 840.085ZM925.321 841.454C926.459 839.56 928.917 838.948 930.811 840.085C932.704 841.223 933.317 843.68 932.18 845.573C927.924 852.658 923.33 859.516 918.421 866.125C917.104 867.898 914.599 868.268 912.825 866.951C911.052 865.634 910.682 863.128 911.999 861.354C916.753 854.955 921.201 848.314 925.321 841.454ZM17.0869 795.809C19.1668 795.064 21.4568 796.147 22.2012 798.227C24.9035 805.778 27.967 813.158 31.3721 820.345C32.3179 822.341 31.4669 824.727 29.4707 825.673C27.4743 826.619 25.0885 825.767 24.1426 823.771C20.6253 816.347 17.4606 808.724 14.6689 800.923C13.9246 798.843 15.0069 796.553 17.0869 795.809ZM945.8 798.227C946.544 796.147 948.833 795.064 950.913 795.809C952.993 796.553 954.076 798.843 953.332 800.923C950.54 808.724 947.375 816.347 943.857 823.771C942.911 825.767 940.526 826.619 938.529 825.673C936.533 824.727 935.682 822.341 936.628 820.345C940.033 813.158 943.097 805.778 945.8 798.227ZM6.07031 748.445C8.25582 748.124 10.2887 749.635 10.6104 751.82C11.7816 759.783 13.3371 767.62 15.2578 775.312C15.793 777.455 14.4897 779.626 12.3467 780.161C10.2034 780.696 8.03139 779.393 7.49609 777.25C5.5119 769.304 3.905 761.209 2.69531 752.985C2.37383 750.8 3.88489 748.767 6.07031 748.445ZM957.39 751.82C957.711 749.635 959.744 748.124 961.93 748.445C964.115 748.767 965.626 750.8 965.305 752.985C964.095 761.209 962.488 769.304 960.504 777.25C959.969 779.393 957.797 780.696 955.653 780.161C953.51 779.626 952.207 777.455 952.742 775.312C954.663 767.62 956.218 759.783 957.39 751.82ZM0 716V704.4C0 702.191 1.79086 700.4 4 700.4C6.20914 700.4 8 702.191 8 704.4V716C8 720.017 8.09721 724.011 8.28906 727.98C8.39572 730.187 6.69289 732.062 4.48633 732.169C2.27995 732.275 0.404559 730.574 0.297852 728.367C0.0997777 724.269 0 720.146 0 716ZM960 716V704.4C960 702.191 961.791 700.4 964 700.4C966.209 700.4 968 702.191 968 704.4V716C968 720.146 967.9 724.269 967.702 728.367C967.595 730.574 965.72 732.275 963.514 732.169C961.307 732.062 959.604 730.187 959.711 727.98C959.903 724.011 960 720.017 960 716ZM0 681.2V658C0 655.791 1.79086 654 4 654C6.20914 654 8 655.791 8 658V681.2C7.9999 683.409 6.20908 685.2 4 685.2C1.79092 685.2 9.89557e-05 683.409 0 681.2ZM960 681.2V658C960 655.791 961.791 654 964 654C966.209 654 968 655.791 968 658V681.2C968 683.409 966.209 685.2 964 685.2C961.791 685.2 960 683.409 960 681.2ZM0 634.8V611.6C0.000197905 609.391 1.79098 607.6 4 607.6C6.20902 607.6 7.9998 609.391 8 611.6V634.8C8 637.009 6.20914 638.8 4 638.8C1.79086 638.8 0 637.009 0 634.8ZM960 634.8V611.6C960 609.391 961.791 607.6 964 607.6C966.209 607.6 968 609.391 968 611.6V634.8C968 637.009 966.209 638.8 964 638.8C961.791 638.8 960 637.009 960 634.8ZM0 588.4V565.2C0 562.991 1.79086 561.2 4 561.2C6.20914 561.2 8 562.991 8 565.2V588.4C7.9998 590.609 6.20902 592.4 4 592.4C1.79098 592.4 0.000197905 590.609 0 588.4ZM960 588.4V565.2C960 562.991 961.791 561.2 964 561.2C966.209 561.2 968 562.991 968 565.2V588.4C968 590.609 966.209 592.4 964 592.4C961.791 592.4 960 590.609 960 588.4ZM0 542V518.8C9.89559e-05 516.591 1.79092 514.8 4 514.8C6.20908 514.8 7.9999 516.591 8 518.8V542C8 544.209 6.20914 546 4 546C1.79086 546 0 544.209 0 542ZM960 542V518.8C960 516.591 961.791 514.8 964 514.8C966.209 514.8 968 516.591 968 518.8V542C968 544.209 966.209 546 964 546C961.791 546 960 544.209 960 542ZM0 495.6V472.4C0 470.191 1.79086 468.4 4 468.4C6.20914 468.4 8 470.191 8 472.4V495.6C8 497.809 6.20914 499.6 4 499.6C1.79086 499.6 0 497.809 0 495.6ZM960 495.6V472.4C960 470.191 961.791 468.4 964 468.4C966.209 468.4 968 470.191 968 472.4V495.6C968 497.809 966.209 499.6 964 499.6C961.791 499.6 960 497.809 960 495.6ZM0 449.2V426C0 423.791 1.79086 422 4 422C6.20914 422 8 423.791 8 426V449.2C7.9999 451.409 6.20908 453.2 4 453.2C1.79092 453.2 9.89544e-05 451.409 0 449.2ZM960 449.2V426C960 423.791 961.791 422 964 422C966.209 422 968 423.791 968 426V449.2C968 451.409 966.209 453.2 964 453.2C961.791 453.2 960 451.409 960 449.2ZM0 402.8V379.6C0.000197902 377.391 1.79098 375.6 4 375.6C6.20902 375.6 7.9998 377.391 8 379.6V402.8C8 405.009 6.20914 406.8 4 406.8C1.79086 406.8 0 405.009 0 402.8ZM960 402.8V379.6C960 377.391 961.791 375.6 964 375.6C966.209 375.6 968 377.391 968 379.6V402.8C968 405.009 966.209 406.8 964 406.8C961.791 406.8 960 405.009 960 402.8ZM0 356.4V333.2C0 330.991 1.79086 329.2 4 329.2C6.20914 329.2 8 330.991 8 333.2V356.4C7.99977 358.609 6.209 360.4 4 360.4C1.791 360.4 0.000230883 358.609 0 356.4ZM960 356.4V333.2C960 330.991 961.791 329.2 964 329.2C966.209 329.2 968 330.991 968 333.2V356.4C968 358.609 966.209 360.4 964 360.4C961.791 360.4 960 358.609 960 356.4ZM0 310V286.8C6.59708e-05 284.591 1.7909 282.8 4 282.8C6.2091 282.8 7.99993 284.591 8 286.8V310C7.99997 312.209 6.20912 314 4 314C1.79088 314 3.29855e-05 312.209 0 310ZM960 310V286.8C960 284.591 961.791 282.8 964 282.8C966.209 282.8 968 284.591 968 286.8V310C968 312.209 966.209 314 964 314C961.791 314 960 312.209 960 310ZM0 263.6V252C0 247.854 0.0997796 243.731 0.297852 239.633C0.404606 237.426 2.27998 235.725 4.48633 235.831C6.69289 235.938 8.39572 237.813 8.28906 240.02C8.09721 243.989 8 247.983 8 252V263.6C8 265.809 6.20914 267.6 4 267.6C1.79086 267.6 0 265.809 0 263.6ZM960 263.6V252C960 247.983 959.903 243.989 959.711 240.02C959.604 237.813 961.307 235.938 963.514 235.831C965.72 235.725 967.595 237.426 967.702 239.633C967.9 243.731 968 247.854 968 252V263.6C968 265.809 966.209 267.6 964 267.6C961.791 267.6 960 265.809 960 263.6ZM7.49609 190.75C8.03141 188.607 10.2034 187.304 12.3467 187.839C14.4897 188.374 15.793 190.545 15.2578 192.688C13.3371 200.38 11.7816 208.217 10.6104 216.18C10.2887 218.365 8.25582 219.876 6.07031 219.555C3.88489 219.233 2.37383 217.2 2.69531 215.015C3.905 206.791 5.5119 198.696 7.49609 190.75ZM955.653 187.839C957.797 187.304 959.969 188.607 960.504 190.75C962.488 198.696 964.095 206.791 965.305 215.015C965.626 217.2 964.115 219.233 961.93 219.555C959.744 219.876 957.711 218.365 957.39 216.18C956.218 208.217 954.663 200.38 952.742 192.688C952.207 190.545 953.51 188.374 955.653 187.839ZM24.1426 144.229C25.0885 142.233 27.4743 141.381 29.4707 142.327C31.467 143.273 32.3179 145.659 31.3721 147.655C27.967 154.842 24.9035 162.222 22.2012 169.773C21.4568 171.853 19.1668 172.936 17.0869 172.191C15.0069 171.447 13.9246 169.157 14.6689 167.077C17.4606 159.276 20.6254 151.653 24.1426 144.229ZM938.529 142.327C940.526 141.381 942.912 142.233 943.857 144.229C947.375 151.653 950.539 159.276 953.331 167.077C954.075 169.157 952.993 171.447 950.913 172.191C948.833 172.936 946.544 171.853 945.8 169.773C943.097 162.222 940.033 154.842 936.628 147.655C935.682 145.659 936.533 143.273 938.529 142.327ZM49.5791 101.875C50.8964 100.102 53.4015 99.7318 55.1748 101.049C56.9482 102.366 57.3183 104.872 56.001 106.646C51.2468 113.045 46.7989 119.686 42.6787 126.546C41.5412 128.44 39.0832 129.053 37.1895 127.915C35.296 126.777 34.683 124.32 35.8203 122.427C40.0757 115.342 44.6696 108.484 49.5791 101.875ZM912.825 101.049C914.599 99.7318 917.104 100.102 918.421 101.875C923.33 108.484 927.924 115.342 932.18 122.427C933.317 124.32 932.704 126.778 930.811 127.915C928.917 129.053 926.459 128.44 925.321 126.546C921.201 119.686 916.753 113.045 911.999 106.646C910.682 104.872 911.052 102.366 912.825 101.049ZM82.7666 65.2783C84.403 63.7947 86.9321 63.9185 88.416 65.5547C89.9001 67.1911 89.7771 69.721 88.1406 71.2051C82.2236 76.5711 76.5711 82.2236 71.2051 88.1406C69.721 89.777 67.1911 89.9001 65.5547 88.416C63.9185 86.9321 63.7947 84.403 65.2783 82.7666C70.8193 76.6568 76.6568 70.8193 82.7666 65.2783ZM879.584 65.5547C881.068 63.9185 883.597 63.7947 885.233 65.2783C891.343 70.8193 897.181 76.6568 902.722 82.7666C904.205 84.403 904.081 86.9321 902.445 88.416C900.809 89.9001 898.279 89.7771 896.795 88.1406C891.429 82.2236 885.776 76.5711 879.859 71.2051C878.223 69.721 878.1 67.1911 879.584 65.5547ZM122.427 35.8203C124.32 34.683 126.778 35.296 127.915 37.1895C129.053 39.0832 128.44 41.5412 126.546 42.6787C119.686 46.7989 113.045 51.2468 106.646 56.001C104.872 57.3183 102.366 56.9482 101.049 55.1748C99.7319 53.4015 100.102 50.8964 101.875 49.5791C108.484 44.6696 115.342 40.0757 122.427 35.8203ZM840.085 37.1895C841.223 35.296 843.68 34.683 845.573 35.8203C852.658 40.0757 859.516 44.6696 866.125 49.5791C867.898 50.8964 868.268 53.4014 866.951 55.1748C865.634 56.9482 863.128 57.3183 861.354 56.001C854.955 51.2468 848.314 46.7989 841.454 42.6787C839.56 41.5412 838.948 39.0832 840.085 37.1895ZM167.077 14.6689C169.157 13.9246 171.447 15.0069 172.191 17.0869C172.936 19.1668 171.853 21.4568 169.773 22.2012C162.222 24.9035 154.842 27.967 147.655 31.3721C145.659 32.3179 143.273 31.467 142.327 29.4707C141.381 27.4743 142.233 25.0885 144.229 24.1426C151.653 20.6254 159.276 17.4606 167.077 14.6689ZM795.809 17.0869C796.553 15.0069 798.843 13.9246 800.923 14.6689C808.724 17.4606 816.347 20.6254 823.771 24.1426C825.767 25.0885 826.619 27.4743 825.673 29.4707C824.727 31.467 822.341 32.3179 820.345 31.3721C813.158 27.967 805.778 24.9035 798.227 22.2012C796.147 21.4568 795.064 19.1668 795.809 17.0869ZM215.015 2.69531C217.2 2.37383 219.233 3.88489 219.555 6.07031C219.876 8.25581 218.365 10.2887 216.18 10.6104C208.217 11.7816 200.38 13.3371 192.688 15.2578C190.545 15.793 188.374 14.4897 187.839 12.3467C187.304 10.2034 188.607 8.03139 190.75 7.49609C198.696 5.5119 206.791 3.905 215.015 2.69531ZM748.445 6.07031C748.767 3.88489 750.8 2.37383 752.985 2.69531C761.209 3.905 769.304 5.5119 777.25 7.49609C779.393 8.03141 780.696 10.2034 780.161 12.3467C779.626 14.4897 777.455 15.793 775.312 15.2578C767.62 13.3371 759.783 11.7816 751.82 10.6104C749.635 10.2887 748.124 8.25582 748.445 6.07031ZM263.6 0C265.809 0 267.6 1.79086 267.6 4C267.6 6.20914 265.809 8 263.6 8H252C247.983 8 243.989 8.09721 240.02 8.28906C237.813 8.39572 235.938 6.69289 235.831 4.48633C235.725 2.27996 237.426 0.404575 239.633 0.297852C243.731 0.0997777 247.854 0 252 0H263.6ZM716 0C720.146 0 724.269 0.0997796 728.367 0.297852C730.574 0.40459 732.275 2.27997 732.169 4.48633C732.062 6.69289 730.187 8.39572 727.98 8.28906C724.011 8.09721 720.017 8 716 8H704.4C702.191 8 700.4 6.20914 700.4 4C700.4 1.79086 702.191 0 704.4 0H716ZM310 0C312.209 0 314 1.79086 314 4C314 6.20914 312.209 8 310 8H286.8C284.591 7.9999 282.8 6.20908 282.8 4C282.8 1.79092 284.591 9.89544e-05 286.8 0H310ZM356.4 0C358.609 0.000214393 360.4 1.79099 360.4 4C360.4 6.20901 358.609 7.99979 356.4 8H333.2C330.991 8 329.2 6.20914 329.2 4C329.2 1.79086 330.991 0 333.2 0H356.4ZM402.8 0C405.009 0 406.8 1.79086 406.8 4C406.8 6.20914 405.009 8 402.8 8H379.6C377.391 7.99979 375.6 6.20901 375.6 4C375.6 1.79099 377.391 0.000214393 379.6 0H402.8ZM449.2 0C451.409 0.000115446 453.2 1.79093 453.2 4C453.2 6.20907 451.409 7.99988 449.2 8H426C423.791 8 422 6.20914 422 4C422 1.79086 423.791 0 426 0H449.2ZM495.6 0C497.809 0 499.6 1.79086 499.6 4C499.6 6.20914 497.809 8 495.6 8H472.4C470.191 8 468.4 6.20914 468.4 4C468.4 1.79086 470.191 0 472.4 0H495.6ZM542 0C544.209 0 546 1.79086 546 4C546 6.20914 544.209 8 542 8H518.8C516.591 7.9999 514.8 6.20908 514.8 4C514.8 1.79092 516.591 9.89557e-05 518.8 0H542ZM588.4 0C590.609 0.000197905 592.4 1.79098 592.4 4C592.4 6.20902 590.609 7.9998 588.4 8H565.2C562.991 8 561.2 6.20914 561.2 4C561.2 1.79086 562.991 0 565.2 0H588.4ZM634.8 0C637.009 0 638.8 1.79086 638.8 4C638.8 6.20914 637.009 8 634.8 8H611.6C609.391 7.99977 607.6 6.209 607.6 4C607.6 1.791 609.391 0.000230887 611.6 0H634.8ZM681.2 0C683.409 6.59717e-05 685.2 1.7909 685.2 4C685.2 6.2091 683.409 7.99993 681.2 8H658C655.791 7.99997 654 6.20912 654 4C654 1.79088 655.791 3.29851e-05 658 0H681.2Z" fill="white"/>
</svg>
