<svg width="252" height="462" viewBox="0 0 252 462" fill="none" xmlns="http://www.w3.org/2000/svg">
<path d="M126.321 462C101.527 462 79.7252 457.053 60.916 447.159C42.1069 437.265 27.5725 423.5 17.313 405.863C7.05343 387.796 1.92366 367.148 1.92366 343.919V325.207C1.92366 323.056 2.56489 321.335 3.84733 320.045C5.55725 318.324 7.48092 317.464 9.61832 317.464H83.3588C85.4962 317.464 87.2061 318.324 88.4885 320.045C90.1985 321.335 91.0534 323.056 91.0534 325.207V339.402C91.0534 352.737 94.4733 363.492 101.313 371.665C108.153 379.838 116.702 383.925 126.962 383.925C137.221 383.925 145.771 380.053 152.611 372.31C159.45 364.567 162.87 354.458 162.87 341.983C162.87 329.078 158.595 318.109 150.046 309.075C141.496 299.612 124.824 285.846 100.031 267.779C78.6565 252.293 61.3435 238.528 48.0916 226.483C34.8397 214.439 23.5115 199.598 14.1069 181.961C4.70229 164.324 0 143.891 0 120.662C0 84.0978 11.3282 54.8464 33.9847 32.9078C56.6412 10.9693 86.5649 0 123.756 0C161.374 0 191.511 11.3994 214.168 34.1983C237.252 56.9972 248.794 86.8938 248.794 123.888V139.374C248.794 141.525 247.939 143.461 246.229 145.182C244.947 146.472 243.237 147.117 241.099 147.117H167.359C165.221 147.117 163.298 146.472 161.588 145.182C160.305 143.461 159.664 141.525 159.664 139.374V121.952C159.664 108.617 156.244 98.0782 149.405 90.3352C142.992 82.162 134.443 78.0754 123.756 78.0754C113.496 78.0754 105.16 81.9469 98.7481 89.6899C92.3359 97.0028 89.1298 107.327 89.1298 120.662C89.1298 133.567 93.1908 144.966 101.313 154.86C109.435 164.754 125.466 178.52 149.405 196.156C175.908 215.944 195.786 232.075 209.038 244.55C222.718 256.595 233.191 270.145 240.458 285.201C248.153 299.827 252 317.464 252 338.112C252 375.966 240.458 406.078 217.374 428.447C194.29 450.816 163.939 462 126.321 462Z" fill="white"/>
</svg>
